<svg xmlns="http://www.w3.org/2000/svg" width="430.29" height="433.55"><title/><g><title>background</title><rect id="canvas_background" width="582" height="402" x="-1" y="-1" fill="none"/></g><g><title stroke="#fff">Layer 1</title><path id="svg_1" fill="#fff" stroke="#fff" d="m377,145.3l-35.88,0l0,-24.49a16.82,16.82 0 0 0 14.93,-16.69l0,-13.61l8.09,0a20.23,20.23 0 0 0 17.44,-10.05a5.47,5.47 0 0 0 -9.46,-5.46a9.26,9.26 0 0 1 -8,4.61l-100.21,0a5.47,5.47 0 0 0 0,10.93l12.09,0l0,13.61a16.82,16.82 0 0 0 16.8,16.8l37.39,0l0,242.69l-28.33,0l0,-124.28a5.47,5.47 0 1 0 -10.93,0l0,124.5a16.79,16.79 0 0 0 -14.23,16.56l0,42.2l-11.7,0a5.47,5.47 0 0 0 0,10.93l105,0a5.47,5.47 0 1 0 0,-10.93l-14.66,0l0,-42.2a16.78,16.78 0 0 0 -14.22,-16.56l0,-178.21l5.36,0a28.82,28.82 0 0 0 24.78,-14.21l10.47,-17.91a5.47,5.47 0 0 0 -4.73,-8.23zm-90.08,-41.18l0,-13.61l58.19,0l0,13.61a5.88,5.88 0 0 1 -5.87,5.87l-46.44,0a5.87,5.87 0 0 1 -5.87,-5.87l-0.01,0zm57.48,276.3l0,42.2l-56.77,0l0,-42.2a5.86,5.86 0 0 1 5.85,-5.85l45.09,0a5.86,5.86 0 0 1 5.84,5.85l-0.01,0zm17.41,-214.5a17.84,17.84 0 0 1 -15.34,8.8l-5.36,0l0,-18.49l26.36,0l-5.66,9.69z"/><path id="svg_2" fill="#fff" stroke="#fff" d="m296.39,221.71a5.47,5.47 0 0 0 5.47,-5.47l0,-78.24a5.47,5.47 0 0 0 -10.93,0l0,7.26l-24.66,0a5.47,5.47 0 0 0 0,10.93l24.66,0l0,60a5.46,5.46 0 0 0 5.46,5.52z"/><path id="svg_3" fill="#fff" stroke="#fff" d="m149,180.18a5.46,5.46 0 0 0 5.46,5.47l121.31,0a5.47,5.47 0 1 0 0,-10.93l-121.29,0a5.45,5.45 0 0 0 -5.48,5.46z"/><path id="svg_4" fill="#fff" stroke="#fff" d="m126,17.75a5.46,5.46 0 1 0 -0.87,10.89l3.26,0.26l0.42,0a5.46,5.46 0 0 0 0.43,-10.9l-3.24,-0.25z"/><path id="svg_5" fill="#fff" stroke="#fff" d="m428.16,1.14a5.46,5.46 0 0 0 -4.73,-1c-0.8,0.21 -81.75,21.08 -208.16,21.08c-14.64,0 -29.41,-0.29 -43.91,-0.84a5.46,5.46 0 1 0 -0.42,10.92c14.64,0.56 29.55,0.85 44.33,0.85c106.89,0 181.84,-14.81 204.08,-19.81l0,21a17.24,17.24 0 0 1 -5,12.39a17.46,17.46 0 0 1 -12.5,5.27l-373.15,0a17.66,17.66 0 0 1 -17.64,-17.65l-0.1,-21c11.27,2.65 36.04,7.65 72.12,12.06a5.47,5.47 0 0 0 1.32,-10.85c-48.85,-5.95 -77.27,-13.31 -77.55,-13.38a5.47,5.47 0 0 0 -6.85,5.31l0.13,27.89a28.6,28.6 0 0 0 28.57,28.56l373.15,0a28.35,28.35 0 0 0 28.43,-28.56l0,-27.91a5.45,5.45 0 0 0 -2.12,-4.33z"/><path id="svg_6" fill="#f4f4ef" stroke="#fff" d="m188.63,422.62l-34.78,0l0,-42.2a16.79,16.79 0 0 0 -14.23,-16.56l0,-207.63l23.48,0a5.47,5.47 0 1 0 0,-10.93l-23.48,0l0,-24.49a16.81,16.81 0 0 0 14.93,-16.69l0,-13.61l13.17,0a5.47,5.47 0 1 0 0,-10.93l-101.31,0a9.28,9.28 0 0 1 -8,-4.61a5.47,5.47 0 0 0 -9.41,5.48a20.24,20.24 0 0 0 17.41,10.06l8.09,0l0,13.61a16.81,16.81 0 0 0 14.93,16.69l0,24.49l-35.9,0a5.46,5.46 0 0 0 -4.71,8.23l10.47,17.91a28.82,28.82 0 0 0 24.78,14.21l5.36,0l0,178.21a16.79,16.79 0 0 0 -14.23,16.56l0,28.8a5.47,5.47 0 0 0 10.94,0l0,-28.8a5.86,5.86 0 0 1 5.86,-5.85l45.09,0a5.86,5.86 0 0 1 5.84,5.85l0,42.2l-91.2,0a5.47,5.47 0 1 0 0,10.93l136.9,0a5.47,5.47 0 1 0 0,-10.93zm-88.27,-179.12l0,-122.58l28.33,0l0,242.72l-28.33,0l0,-120.14zm-14.93,-139.38l0,-13.61l58.19,0l0,13.61a5.87,5.87 0 0 1 -5.87,5.87l-46.45,0a5.87,5.87 0 0 1 -5.87,-5.87zm-1.36,70.6a17.84,17.84 0 0 1 -15.34,-8.8l-5.67,-9.69l26.37,0l0,18.49l-5.36,0z"/><path id="svg_7" fill="#fff" stroke="#fff" d="m223.67,422.62l-5.67,0a5.47,5.47 0 1 0 0,10.93l5.66,0a5.47,5.47 0 0 0 0,-10.93l0.01,0z"/><path id="svg_8" fill="#fff" stroke="#fff" d="m405.33,422.62l-5.17,0a5.47,5.47 0 0 0 0,10.93l5.17,0a5.47,5.47 0 1 0 0,-10.93z"/><path id="svg_9" fill="#fff" stroke="#fff" d="m188.63,117.13a5.46,5.46 0 0 0 -5.46,5.46l0,35.17a5.45,5.45 0 0 0 5.46,5.46l53.28,0a5.46,5.46 0 0 0 5.47,-5.46l0,-80.89a5.47,5.47 0 0 0 -5.47,-5.47l-53.28,0a5.46,5.46 0 0 0 -5.46,5.47l0,23.38a5.47,5.47 0 0 0 10.93,0l0,-17.92l42.35,0l0,70l-42.35,0l0,-29.7a5.47,5.47 0 0 0 -5.47,-5.5z"/></g></svg>